<?xml version="1.0" encoding="utf-8"?>
<!-- Generator: Adobe Illustrator 25.2.0, SVG Export Plug-In . SVG Version: 6.00 Build 0)  -->
<svg version="1.1" id="Layer_1" xmlns="http://www.w3.org/2000/svg" xmlns:xlink="http://www.w3.org/1999/xlink" x="0px" y="0px"
	 viewBox="0 0 500 500" style="enable-background:new 0 0 500 500;" xml:space="preserve">
<style type="text/css">
	.st0{fill:#010101;}
</style>
<g>
	<path d="M68.41,224.5c4.6,0,8.26,0.93,10.98,2.79c2.72,1.86,4.08,4.63,4.08,8.31c0,2.24-0.47,4.18-1.41,5.82
		c-0.94,1.64-2.23,2.96-3.87,3.96c2.28,1.08,4.08,2.49,5.4,4.23c1.32,1.74,1.98,3.75,1.98,6.03c0,2.4-0.43,4.43-1.29,6.09
		c-0.86,1.66-2.02,3-3.48,4.02c-1.46,1.02-3.11,1.76-4.95,2.22c-1.84,0.46-3.74,0.69-5.7,0.69h-14.7V224.5H68.41z M69.43,242.56
		c1.72,0,2.99-0.52,3.81-1.56c0.82-1.04,1.23-2.22,1.23-3.54c0-1.52-0.51-2.66-1.53-3.42c-1.02-0.76-2.39-1.14-4.11-1.14h-4.68v9.66
		H69.43z M69.73,260.56c1.92,0,3.54-0.39,4.86-1.17c1.32-0.78,1.98-2.03,1.98-3.75c0-1.28-0.36-2.25-1.08-2.91
		c-0.72-0.66-1.65-1.12-2.79-1.38c-1.14-0.26-2.33-0.39-3.57-0.39h-4.98v9.6H69.73z"/>
	<path d="M87.79,268.66l19.92-45.9h0.48l19.92,45.9h-10.08l-3.42-8.64H99.97l-3.6,8.64H87.79z M103.03,252.7h8.7l-4.26-10.74
		L103.03,252.7z"/>
	<path d="M158.11,235.18c-1.68-0.92-3.39-1.68-5.13-2.28c-1.74-0.6-3.37-0.9-4.89-0.9c-1.88,0-3.36,0.38-4.44,1.14
		c-1.08,0.76-1.62,1.9-1.62,3.42c0,1.04,0.41,1.97,1.23,2.79c0.82,0.82,1.88,1.55,3.18,2.19c1.3,0.64,2.65,1.22,4.05,1.74
		c1.72,0.64,3.38,1.45,4.98,2.43c1.6,0.98,2.92,2.32,3.96,4.02c1.04,1.7,1.56,3.95,1.56,6.75c0,2.24-0.58,4.32-1.74,6.24
		c-1.16,1.92-2.86,3.47-5.1,4.65c-2.24,1.18-5,1.77-8.28,1.77c-2.52,0-5.09-0.38-7.71-1.14c-2.62-0.76-5.09-1.96-7.41-3.6l3.84-6.78
		c1.52,1.12,3.26,2.04,5.22,2.76c1.96,0.72,3.72,1.08,5.28,1.08c1.04,0,2.09-0.15,3.15-0.45c1.06-0.3,1.94-0.81,2.64-1.53
		c0.7-0.72,1.05-1.72,1.05-3c0-1.32-0.63-2.47-1.89-3.45c-1.26-0.98-2.77-1.81-4.53-2.49c-1.36-0.52-2.76-1.12-4.2-1.8
		c-1.44-0.68-2.79-1.51-4.05-2.49c-1.26-0.98-2.28-2.2-3.06-3.66c-0.78-1.46-1.17-3.25-1.17-5.37c0-2.56,0.57-4.78,1.71-6.66
		c1.14-1.88,2.75-3.37,4.83-4.47c2.08-1.1,4.48-1.71,7.2-1.83c3.56,0,6.45,0.42,8.67,1.26c2.22,0.84,4.21,1.84,5.97,3L158.11,235.18
		z"/>
	<path d="M206.65,224.5v44.16h-8.7v-17.94h-19.74v17.94h-8.7V224.5h8.7v17.82h19.74V224.5H206.65z"/>
	<path d="M226.87,240.22l-0.24,2.22l1.32-1.68l14.4-16.26h11.28l-18.24,19.8l18.3,24.36h-11.04l-13.62-18.84l-2.16,2.16v16.68h-8.82
		V224.5h8.82V240.22z"/>
	<path d="M273.25,224.5c4.6,0,8.26,0.93,10.98,2.79c2.72,1.86,4.08,4.63,4.08,8.31c0,2.24-0.47,4.18-1.41,5.82
		c-0.94,1.64-2.23,2.96-3.87,3.96c2.28,1.08,4.08,2.49,5.4,4.23c1.32,1.74,1.98,3.75,1.98,6.03c0,2.4-0.43,4.43-1.29,6.09
		c-0.86,1.66-2.02,3-3.48,4.02c-1.46,1.02-3.11,1.76-4.95,2.22c-1.84,0.46-3.74,0.69-5.7,0.69h-14.7V224.5H273.25z M274.27,242.56
		c1.72,0,2.99-0.52,3.81-1.56c0.82-1.04,1.23-2.22,1.23-3.54c0-1.52-0.51-2.66-1.53-3.42c-1.02-0.76-2.39-1.14-4.11-1.14h-4.68v9.66
		H274.27z M274.57,260.56c1.92,0,3.54-0.39,4.86-1.17c1.32-0.78,1.98-2.03,1.98-3.75c0-1.28-0.36-2.25-1.08-2.91
		c-0.72-0.66-1.65-1.12-2.79-1.38c-1.14-0.26-2.33-0.39-3.57-0.39h-4.98v9.6H274.57z"/>
	<path d="M292.63,268.66l19.92-45.9h0.48l19.92,45.9h-10.08l-3.42-8.64h-14.64l-3.6,8.64H292.63z M307.87,252.7h8.7l-4.26-10.74
		L307.87,252.7z"/>
	<path d="M378.91,270.46l-30.9-27.9l0.18,26.1h-8.82v-45.9h0.36l30.84,28.32l-0.18-26.58h8.76v45.96H378.91z"/>
	<path d="M387.85,246.64c0-3.04,0.58-5.92,1.74-8.64c1.16-2.72,2.77-5.13,4.83-7.23c2.06-2.1,4.45-3.75,7.17-4.95
		c2.72-1.2,5.64-1.8,8.76-1.8c3.08,0,5.98,0.6,8.7,1.8c2.72,1.2,5.13,2.85,7.23,4.95c2.1,2.1,3.74,4.51,4.92,7.23
		c1.18,2.72,1.77,5.6,1.77,8.64c0,3.12-0.59,6.04-1.77,8.76s-2.82,5.11-4.92,7.17c-2.1,2.06-4.51,3.67-7.23,4.83
		c-2.72,1.16-5.62,1.74-8.7,1.74c-3.12,0-6.04-0.58-8.76-1.74c-2.72-1.16-5.11-2.77-7.17-4.83c-2.06-2.06-3.67-4.45-4.83-7.17
		C388.43,252.68,387.85,249.76,387.85,246.64z M396.85,246.64c0,2.6,0.61,4.97,1.83,7.11c1.22,2.14,2.87,3.84,4.95,5.1
		c2.08,1.26,4.42,1.89,7.02,1.89c2.52,0,4.79-0.63,6.81-1.89c2.02-1.26,3.61-2.96,4.77-5.1c1.16-2.14,1.74-4.51,1.74-7.11
		c0-2.68-0.6-5.09-1.8-7.23c-1.2-2.14-2.82-3.84-4.86-5.1c-2.04-1.26-4.34-1.89-6.9-1.89s-4.86,0.63-6.9,1.89
		c-2.04,1.26-3.66,2.96-4.86,5.1C397.45,241.55,396.85,243.96,396.85,246.64z"/>
</g>
<g transform="translate(0.000000,568.000000) scale(0.100000,-0.100000)">
	<path class="st0" d="M3723.54,3854.1C3558.96,3708.25,3424,3587.79,3424,3586.58c-0.2-1.21,13.9-18.33,31.22-37.87
		c28-31.63,31.83-35.25,34.85-32.84c1.81,1.61,122.68,108.58,268.72,237.9c146.05,129.33,266.71,235.49,268.32,236.09
		s107.17-91.45,269.33-235.08c146.65-129.73,267.92-237.3,269.73-238.91c3.02-2.42,6.85,1.21,34.85,32.84
		c17.32,19.54,31.43,36.46,31.22,37.87c0,1.21-134.77,121.47-299.34,267.11c-219.98,194.79-300.55,265.1-304.58,265.3
		C4023.89,4119.4,3974.74,4076.69,3723.54,3854.1z"/>
	<path class="st0" d="M3603.08,3929.03c0-64.86,0.81-113.61,1.81-113.21c1.01,0.4,35.45,31.02,76.55,68.09l74.74,67.48v33.44
		c0,18.33,0.6,39.08,1.21,45.93l1.41,12.29h-77.96h-77.76V3929.03z"/>
	<path class="st0" d="M3814.8,3726.58c-116.43-103.34-211.51-188.55-211.31-189.36c1.01-3.02,46.33-52.17,47.94-52.17
		c0.81,0,84.4,72.92,185.53,162.16c101.33,89.24,184.72,162.16,185.33,162.16c0.81,0,14.3-12.09,30.22-26.59
		c15.91-14.71,72.92-66.27,126.71-114.42c79.57-71.31,175.25-157.93,198.82-180.09l4.63-4.23l-4.03-247.57
		c-2.22-136.18-3.63-247.98-3.22-248.58c2.01-1.81,46.94-12.49,53.18-12.49c8.46,0,16.92,4.83,21.35,12.09
		c3.02,5.24,3.22,29.61,3.22,278.59v272.95l-210.51,186.74c-115.83,102.53-211.72,186.94-213.33,187.54
		C4027.92,3913.93,3936.27,3834.15,3814.8,3726.58z"/>
</g>
<rect x="437.53" y="268.73" class="st0" width="7.59" height="1.73"/>
</svg>
